<mxfile host="app.diagrams.net" modified="2023-10-24T06:20:54.691Z" agent="Mozilla/5.0 (Macintosh; Intel Mac OS X 10_15_7) AppleWebKit/537.36 (KHTML, like Gecko) Chrome/118.0.0.0 Safari/537.36" version="22.0.6" etag="acGqKyJ4VwqiODbHfvuV" type="github">
  <diagram name="第 1 页" id="02G71AiLX-k9ASmLAX4D">
    <mxGraphModel>
      <root>
        <mxCell id="0" />
        <mxCell id="1" parent="0" />
      </root>
    </mxGraphModel>
  </diagram>
</mxfile>
